<svg width="20" height="20" viewBox="0 0 20 20" fill="none" xmlns="http://www.w3.org/2000/svg">
<path fill-rule="evenodd" clip-rule="evenodd" d="M9.99996 18.3332C5.39759 18.3332 1.66663 14.6022 1.66663 9.99984C1.66663 5.39746 5.39759 1.6665 9.99996 1.6665C14.6023 1.6665 18.3333 5.39746 18.3333 9.99984C18.3333 14.6022 14.6023 18.3332 9.99996 18.3332ZM10.8333 5.83317C10.8333 5.37293 10.4602 4.99984 9.99996 4.99984C9.53972 4.99984 9.16663 5.37293 9.16663 5.83317V10.4165C9.16663 11.1069 9.72627 11.6665 10.4166 11.6665H12.5C12.9602 11.6665 13.3333 11.2934 13.3333 10.8332C13.3333 10.3729 12.9602 9.99984 12.5 9.99984H10.8333V5.83317Z" fill="#818898"/>
</svg>
