<svg width="24" height="24" viewBox="0 0 24 24" fill="none" xmlns="http://www.w3.org/2000/svg">
<path fill-rule="evenodd" clip-rule="evenodd" d="M11.9998 5C15.079 5 18.0176 6.81854 20.113 10.1592C20.8184 11.2839 20.8184 12.7161 20.113 13.8408C18.0176 17.1815 15.079 19 11.9998 19C8.92055 18.9999 5.98189 17.1814 3.88648 13.8408C3.18123 12.7161 3.18123 11.2839 3.88648 10.1592C5.98189 6.81856 8.92055 5.00009 11.9998 5ZM11.9998 7C9.77431 7.00009 7.40786 8.3089 5.58082 11.2217C5.28303 11.6966 5.28303 12.3034 5.58082 12.7783C7.40786 15.6911 9.77431 16.9999 11.9998 17C14.2253 17 16.5916 15.6911 18.4187 12.7783C18.7166 12.3034 18.7166 11.6966 18.4187 11.2217C16.5916 8.30888 14.2253 7 11.9998 7ZM11.9998 8C14.2089 8 15.9998 9.79086 15.9998 12C15.9998 14.2091 14.2089 16 11.9998 16C9.79073 15.9999 7.99976 14.2091 7.99976 12C7.99976 9.79094 9.79073 8.00013 11.9998 8ZM11.9138 10.0039C11.9684 10.1594 11.9998 10.3259 11.9998 10.5C11.9998 11.3284 11.3282 12 10.4998 12C10.3257 12 10.1591 11.9686 10.0037 11.9141C10.0025 11.9426 9.99976 11.9712 9.99976 12C9.99976 13.1045 10.8953 13.9999 11.9998 14C13.1043 14 13.9998 13.1046 13.9998 12C13.9998 10.8954 13.1043 10 11.9998 10C11.9709 10 11.9424 10.0027 11.9138 10.0039Z" fill="#818898"/>
<line x1="20.6162" y1="3.11353" x2="3.05286" y2="20.1718" stroke="#818898" stroke-width="2.5" stroke-linecap="round"/>
</svg>
