<svg width="24" height="24" viewBox="0 0 24 24" fill="none" xmlns="http://www.w3.org/2000/svg">
<path d="M12.0004 5C15.0796 5.00018 18.0184 6.81863 20.1137 10.1592C20.8189 11.2838 20.8189 12.7162 20.1137 13.8408C18.0184 17.1814 15.0796 18.9998 12.0004 19C8.9212 19 5.98261 17.1814 3.88716 13.8408C3.18182 12.7161 3.18182 11.2839 3.88716 10.1592C5.98261 6.8186 8.9212 5 12.0004 5ZM12.0004 7C9.77497 7 7.40858 8.30894 5.5815 11.2217C5.28362 11.6966 5.28362 12.3034 5.5815 12.7783C7.40858 15.6911 9.77497 17 12.0004 17C14.2258 16.9998 16.5924 15.691 18.4194 12.7783C18.7171 12.3035 18.7171 11.6965 18.4194 11.2217C16.5924 8.30899 14.2258 7.00017 12.0004 7ZM12.0004 8C14.2094 8.00024 16.0004 9.79101 16.0004 12C16.0004 14.209 14.2094 15.9998 12.0004 16C9.7913 16 8.00044 14.2091 8.00044 12C8.00044 9.79086 9.7913 8 12.0004 8ZM11.9135 10.0039C11.9681 10.1594 12.0004 10.3259 12.0004 10.5C12.0004 11.3283 11.3287 11.9998 10.5004 12C10.3265 12 10.1597 11.9685 10.0043 11.9141C10.0031 11.9426 10.0004 11.9712 10.0004 12C10.0004 13.1046 10.8959 14 12.0004 14C13.1048 13.9998 14.0004 13.1044 14.0004 12C14.0004 10.8956 13.1048 10.0002 12.0004 10C11.9714 10 11.9422 10.0027 11.9135 10.0039Z" fill="#818898"/>
</svg>
