<svg width="24" height="24" viewBox="0 0 24 24" fill="none" xmlns="http://www.w3.org/2000/svg">
<mask id="path-1-inside-1_154_2031" fill="white">
<path d="M11.9998 3.2666C14.6138 3.2666 16.733 5.38594 16.7332 8V11.2666H16.9998C18.5093 11.2666 19.733 12.4905 19.7332 14V18C19.7332 19.5096 18.5093 20.7334 16.9998 20.7334H6.99976C5.4903 20.7333 4.26636 19.5095 4.26636 18V14C4.26646 12.4906 5.49036 11.2667 6.99976 11.2666H7.26636V8C7.26646 5.38603 9.38579 3.26674 11.9998 3.2666ZM6.99976 12.7334C6.30038 12.7335 5.73326 13.3006 5.73315 14V18C5.73315 18.6995 6.30032 19.2665 6.99976 19.2666H16.9998C17.6993 19.2666 18.2664 18.6996 18.2664 18V14C18.2663 13.3005 17.6993 12.7334 16.9998 12.7334H6.99976ZM11.9998 14C12.8281 14 13.4997 14.6717 13.4998 15.5C13.4998 16.0619 13.1904 16.5506 12.7332 16.8076V17C12.7332 17.405 12.4048 17.7334 11.9998 17.7334C11.5949 17.7333 11.2664 17.4049 11.2664 17V16.8076C10.8093 16.5506 10.4998 16.0617 10.4998 15.5C10.4999 14.6717 11.1715 14.0001 11.9998 14ZM11.9998 4.7334C10.1958 4.73354 8.73326 6.19605 8.73315 8V11.2666H15.2664V8C15.2663 6.19596 13.8038 4.7334 11.9998 4.7334Z"/>
</mask>
<path d="M11.9998 3.2666C14.6138 3.2666 16.733 5.38594 16.7332 8V11.2666H16.9998C18.5093 11.2666 19.733 12.4905 19.7332 14V18C19.7332 19.5096 18.5093 20.7334 16.9998 20.7334H6.99976C5.4903 20.7333 4.26636 19.5095 4.26636 18V14C4.26646 12.4906 5.49036 11.2667 6.99976 11.2666H7.26636V8C7.26646 5.38603 9.38579 3.26674 11.9998 3.2666ZM6.99976 12.7334C6.30038 12.7335 5.73326 13.3006 5.73315 14V18C5.73315 18.6995 6.30032 19.2665 6.99976 19.2666H16.9998C17.6993 19.2666 18.2664 18.6996 18.2664 18V14C18.2663 13.3005 17.6993 12.7334 16.9998 12.7334H6.99976ZM11.9998 14C12.8281 14 13.4997 14.6717 13.4998 15.5C13.4998 16.0619 13.1904 16.5506 12.7332 16.8076V17C12.7332 17.405 12.4048 17.7334 11.9998 17.7334C11.5949 17.7333 11.2664 17.4049 11.2664 17V16.8076C10.8093 16.5506 10.4998 16.0617 10.4998 15.5C10.4999 14.6717 11.1715 14.0001 11.9998 14ZM11.9998 4.7334C10.1958 4.73354 8.73326 6.19605 8.73315 8V11.2666H15.2664V8C15.2663 6.19596 13.8038 4.7334 11.9998 4.7334Z" fill="#2C694A"/>
<path d="M11.9998 3.2666V2.1666H11.9997L11.9998 3.2666ZM16.7332 8H17.8332V7.99996L16.7332 8ZM16.7332 11.2666H15.6332V12.3666H16.7332V11.2666ZM19.7332 14H20.8332V13.9999L19.7332 14ZM6.99976 20.7334L6.99965 21.8334H6.99976V20.7334ZM4.26636 14L3.16636 13.9999V14H4.26636ZM6.99976 11.2666V10.1666H6.99965L6.99976 11.2666ZM7.26636 11.2666V12.3666H8.36636V11.2666H7.26636ZM7.26636 8L6.16636 7.99996V8H7.26636ZM6.99976 12.7334V11.6334H6.99953L6.99976 12.7334ZM5.73315 14L4.63315 13.9998V14H5.73315ZM6.99976 19.2666L6.99953 20.3666H6.99976V19.2666ZM18.2664 14H19.3664V13.9998L18.2664 14ZM11.9998 14V12.9H11.9996L11.9998 14ZM13.4998 15.5H14.5998V15.4999L13.4998 15.5ZM12.7332 16.8076L12.1943 15.8487L11.6332 16.164V16.8076H12.7332ZM11.9998 17.7334L11.9994 18.8334H11.9998V17.7334ZM11.2664 16.8076H12.3664V16.1642L11.8055 15.8488L11.2664 16.8076ZM10.4998 15.5L9.39976 15.4999V15.5H10.4998ZM11.9998 4.7334V3.6334H11.9997L11.9998 4.7334ZM8.73315 8L7.63315 7.99994V8H8.73315ZM8.73315 11.2666H7.63315V12.3666H8.73315V11.2666ZM15.2664 11.2666V12.3666H16.3664V11.2666H15.2664ZM15.2664 8H16.3664V7.99994L15.2664 8ZM11.9998 3.2666V4.3666C14.0063 4.3666 15.6331 5.99342 15.6332 8.00004L16.7332 8L17.8332 7.99996C17.833 4.77846 15.2214 2.1666 11.9998 2.1666V3.2666ZM16.7332 8H15.6332V11.2666H16.7332H17.8332V8H16.7332ZM16.7332 11.2666V12.3666H16.9998V11.2666V10.1666H16.7332V11.2666ZM16.9998 11.2666V12.3666C17.9017 12.3666 18.6331 13.098 18.6332 14.0001L19.7332 14L20.8332 13.9999C20.833 11.8831 19.1169 10.1666 16.9998 10.1666V11.2666ZM19.7332 14H18.6332V18H19.7332H20.8332V14H19.7332ZM19.7332 18H18.6332C18.6332 18.9021 17.9018 19.6334 16.9998 19.6334V20.7334V21.8334C19.1168 21.8334 20.8332 20.1171 20.8332 18H19.7332ZM16.9998 20.7334V19.6334H6.99976V20.7334V21.8334H16.9998V20.7334ZM6.99976 20.7334L6.99986 19.6334C6.09773 19.6333 5.36636 18.9019 5.36636 18H4.26636H3.16636C3.16636 20.1171 4.88286 21.8332 6.99965 21.8334L6.99976 20.7334ZM4.26636 18H5.36636V14H4.26636H3.16636V18H4.26636ZM4.26636 14L5.36636 14.0001C5.36642 13.0982 6.09787 12.3667 6.99986 12.3666L6.99976 11.2666L6.99965 10.1666C4.88285 10.1668 3.16651 11.883 3.16636 13.9999L4.26636 14ZM6.99976 11.2666V12.3666H7.26636V11.2666V10.1666H6.99976V11.2666ZM7.26636 11.2666H8.36636V8H7.26636H6.16636V11.2666H7.26636ZM7.26636 8L8.36636 8.00004C8.36644 5.99357 9.9933 4.36671 11.9998 4.3666L11.9998 3.2666L11.9997 2.1666C8.77828 2.16677 6.16649 4.77849 6.16636 7.99996L7.26636 8ZM6.99976 12.7334L6.99953 11.6334C5.69287 11.6337 4.63335 12.693 4.63315 13.9998L5.73315 14L6.83315 14.0002C6.83317 13.9082 6.90789 13.8334 6.99998 13.8334L6.99976 12.7334ZM5.73315 14H4.63315V18H5.73315H6.83315V14H5.73315ZM5.73315 18H4.63315C4.63315 19.3072 5.69297 20.3663 6.99953 20.3666L6.99976 19.2666L6.99998 18.1666C6.90766 18.1666 6.83315 18.0917 6.83315 18H5.73315ZM6.99976 19.2666V20.3666H16.9998V19.2666V18.1666H6.99976V19.2666ZM16.9998 19.2666V20.3666C18.3068 20.3666 19.3664 19.3071 19.3664 18H18.2664H17.1664C17.1664 18.092 17.0918 18.1666 16.9998 18.1666V19.2666ZM18.2664 18H19.3664V14H18.2664H17.1664V18H18.2664ZM18.2664 14L19.3664 13.9998C19.3662 12.6931 18.3069 11.6334 16.9998 11.6334V12.7334V13.8334C17.0916 13.8334 17.1663 13.9079 17.1664 14.0002L18.2664 14ZM16.9998 12.7334V11.6334H6.99976V12.7334V13.8334H16.9998V12.7334ZM11.9998 14V15.1C12.2205 15.1 12.3997 15.2791 12.3998 15.5001L13.4998 15.5L14.5998 15.4999C14.5996 14.0643 13.4358 12.9 11.9998 12.9V14ZM13.4998 15.5H12.3998C12.3998 15.6471 12.3202 15.7779 12.1943 15.8487L12.7332 16.8076L13.272 17.7666C14.0606 17.3234 14.5998 16.4767 14.5998 15.5H13.4998ZM12.7332 16.8076H11.6332V17H12.7332H13.8332V16.8076H12.7332ZM12.7332 17H11.6332C11.6332 16.7975 11.7973 16.6334 11.9998 16.6334V17.7334V18.8334C13.0123 18.8334 13.8332 18.0125 13.8332 17H12.7332ZM11.9998 17.7334L12.0001 16.6334C12.2021 16.6335 12.3664 16.797 12.3664 17H11.2664H10.1664C10.1664 18.0128 10.9877 18.833 11.9994 18.8334L11.9998 17.7334ZM11.2664 17H12.3664V16.8076H11.2664H10.1664V17H11.2664ZM11.2664 16.8076L11.8055 15.8488C11.6793 15.7778 11.5998 15.6467 11.5998 15.5H10.4998H9.39976C9.39976 16.4767 9.9393 17.3233 10.7272 17.7664L11.2664 16.8076ZM10.4998 15.5L11.5998 15.5001C11.5998 15.2793 11.779 15.1 11.9999 15.1L11.9998 14L11.9996 12.9C10.564 12.9002 9.39994 14.0642 9.39976 15.4999L10.4998 15.5ZM11.9998 4.7334L11.9997 3.6334C9.5883 3.63359 7.6333 5.5885 7.63315 7.99994L8.73315 8L9.83315 8.00006C9.83322 6.8036 10.8033 5.83349 11.9998 5.8334L11.9998 4.7334ZM8.73315 8H7.63315V11.2666H8.73315H9.83315V8H8.73315ZM8.73315 11.2666V12.3666H15.2664V11.2666V10.1666H8.73315V11.2666ZM15.2664 11.2666H16.3664V8H15.2664H14.1664V11.2666H15.2664ZM15.2664 8L16.3664 7.99994C16.3662 5.5885 14.4114 3.6334 11.9998 3.6334V4.7334V5.8334C13.1962 5.8334 14.1663 6.80342 14.1664 8.00006L15.2664 8Z" fill="#2C694A" mask="url(#path-1-inside-1_154_2031)"/>
</svg>
