<svg width="24" height="24" viewBox="0 0 24 24" fill="none" xmlns="http://www.w3.org/2000/svg">
<mask id="path-1-inside-1_569_294" fill="white">
<path d="M12 3C14.7614 3 17 5.23858 17 8V11C18.6569 11 20 12.3431 20 14V18C20 19.6569 18.6569 21 17 21H7C5.34315 21 4 19.6569 4 18V14C4 12.3431 5.34315 11 7 11V8C7 5.23858 9.23858 3 12 3ZM7 13C6.44772 13 6 13.4477 6 14V18C6 18.5523 6.44772 19 7 19H17C17.5523 19 18 18.5523 18 18V14C18 13.4477 17.5523 13 17 13H7ZM12 14C12.0356 14 12.0708 14.0013 12.1055 14.0049C12.8846 14.059 13.5 14.7071 13.5 15.5C13.5 15.9436 13.3061 16.3406 13 16.6152V17C13 17.5523 12.5523 18 12 18C11.4477 18 11 17.5523 11 17V16.6152C10.6939 16.3406 10.5 15.9436 10.5 15.5C10.5 14.7074 11.1148 14.0595 11.8936 14.0049C11.9285 14.0012 11.9641 14 12 14ZM12 5C10.3431 5 9 6.34315 9 8V11H15V8C15 6.34315 13.6569 5 12 5Z"/>
</mask>
<path d="M12 3C14.7614 3 17 5.23858 17 8V11C18.6569 11 20 12.3431 20 14V18C20 19.6569 18.6569 21 17 21H7C5.34315 21 4 19.6569 4 18V14C4 12.3431 5.34315 11 7 11V8C7 5.23858 9.23858 3 12 3ZM7 13C6.44772 13 6 13.4477 6 14V18C6 18.5523 6.44772 19 7 19H17C17.5523 19 18 18.5523 18 18V14C18 13.4477 17.5523 13 17 13H7ZM12 14C12.0356 14 12.0708 14.0013 12.1055 14.0049C12.8846 14.059 13.5 14.7071 13.5 15.5C13.5 15.9436 13.3061 16.3406 13 16.6152V17C13 17.5523 12.5523 18 12 18C11.4477 18 11 17.5523 11 17V16.6152C10.6939 16.3406 10.5 15.9436 10.5 15.5C10.5 14.7074 11.1148 14.0595 11.8936 14.0049C11.9285 14.0012 11.9641 14 12 14ZM12 5C10.3431 5 9 6.34315 9 8V11H15V8C15 6.34315 13.6569 5 12 5Z" fill="#818898"/>
<path d="M17 11H16V12H17V11ZM7 11V12H8V11H7ZM12.1055 14.0049L12.0013 14.9994L12.0187 15.0013L12.0361 15.0025L12.1055 14.0049ZM13 16.6152L12.3322 15.8709L12 16.169V16.6152H13ZM11 16.6152H12V16.169L11.6678 15.8709L11 16.6152ZM11.8936 14.0049L11.9635 15.0024L11.9812 15.0012L11.9987 14.9993L11.8936 14.0049ZM9 11H8V12H9V11ZM15 11V12H16V11H15ZM12 3V4C14.2091 4 16 5.79086 16 8H17H18C18 4.68629 15.3137 2 12 2V3ZM17 8H16V11H17H18V8H17ZM17 11V12C18.1046 12 19 12.8954 19 14H20H21C21 11.7909 19.2091 10 17 10V11ZM20 14H19V18H20H21V14H20ZM20 18H19C19 19.1046 18.1046 20 17 20V21V22C19.2091 22 21 20.2091 21 18H20ZM17 21V20H7V21V22H17V21ZM7 21V20C5.89543 20 5 19.1046 5 18H4H3C3 20.2091 4.79086 22 7 22V21ZM4 18H5V14H4H3V18H4ZM4 14H5C5 12.8954 5.89543 12 7 12V11V10C4.79086 10 3 11.7909 3 14H4ZM7 11H8V8H7H6V11H7ZM7 8H8C8 5.79086 9.79086 4 12 4V3V2C8.68629 2 6 4.68629 6 8H7ZM7 13V12C5.89543 12 5 12.8954 5 14H6H7V13ZM6 14H5V18H6H7V14H6ZM6 18H5C5 19.1046 5.89543 20 7 20V19V18H6ZM7 19V20H17V19V18H7V19ZM17 19V20C18.1046 20 19 19.1046 19 18H18H17V19ZM18 18H19V14H18H17V18H18ZM18 14H19C19 12.8954 18.1046 12 17 12V13V14H18ZM17 13V12H7V13V14H17V13ZM12 14V15C12.0062 15 12.0091 15.0001 12.0095 15.0001C12.0099 15.0001 12.0069 15 12.0013 14.9994L12.1055 14.0049L12.2097 13.0103C12.1299 13.002 12.058 13 12 13V14ZM12.1055 14.0049L12.0361 15.0025C12.296 15.0205 12.5 15.2372 12.5 15.5H13.5H14.5C14.5 14.1769 13.4733 13.0976 12.1748 13.0073L12.1055 14.0049ZM13.5 15.5H12.5C12.5 15.6445 12.4383 15.7757 12.3322 15.8709L13 16.6152L13.6678 17.3595C14.1738 16.9056 14.5 16.2427 14.5 15.5H13.5ZM13 16.6152H12V17H13H14V16.6152H13ZM13 17H12V18V19C13.1046 19 14 18.1046 14 17H13ZM12 18V17H11H10C10 18.1046 10.8954 19 12 19V18ZM11 17H12V16.6152H11H10V17H11ZM11 16.6152L11.6678 15.8709C11.5617 15.7757 11.5 15.6445 11.5 15.5H10.5H9.5C9.5 16.2427 9.82621 16.9056 10.3322 17.3595L11 16.6152ZM10.5 15.5H11.5C11.5 15.2373 11.7039 15.0206 11.9635 15.0024L11.8936 14.0049L11.8236 13.0073C10.5258 13.0984 9.5 14.1775 9.5 15.5H10.5ZM11.8936 14.0049L11.9987 14.9993C11.9922 15 11.9887 15.0002 11.9891 15.0001C11.9896 15.0001 11.9928 15 12 15V14V13C11.9435 13 11.8703 13.0018 11.7884 13.0104L11.8936 14.0049ZM12 5V4C9.79086 4 8 5.79086 8 8H9H10C10 6.89543 10.8954 6 12 6V5ZM9 8H8V11H9H10V8H9ZM9 11V12H15V11V10H9V11ZM15 11H16V8H15H14V11H15ZM15 8H16C16 5.79086 14.2091 4 12 4V5V6C13.1046 6 14 6.89543 14 8H15Z" fill="#818898" mask="url(#path-1-inside-1_569_294)"/>
</svg>
