<svg width="24" height="24" viewBox="0 0 24 24" fill="none" xmlns="http://www.w3.org/2000/svg">
<mask id="path-1-inside-1_154_2038" fill="white">
<path d="M10.4791 2.72559C11.4041 2.11381 12.5951 2.11394 13.5201 2.72559C15.786 4.22475 17.7939 5.32031 20.3043 5.83203C21.1179 5.99804 21.7624 6.72324 21.7321 7.61816C21.5218 13.7723 19.1269 19.6282 13.1178 21.5586C12.3915 21.7918 11.6077 21.7918 10.8815 21.5586C4.87261 19.6281 2.47744 13.7722 2.26721 7.61816C2.23691 6.72337 2.8815 5.99817 3.69495 5.83203C6.20546 5.32035 8.2132 4.22476 10.4791 2.72559ZM12.7115 3.94922C12.277 3.66189 11.7222 3.66175 11.2877 3.94922C8.96529 5.48576 6.77196 6.70211 3.98792 7.26953C3.82455 7.30317 3.72879 7.44022 3.73303 7.56836C3.93452 13.4665 6.19343 18.5119 11.3297 20.1621C11.7644 20.3018 12.2348 20.3017 12.6696 20.1621C17.8061 18.512 20.0647 13.4667 20.2662 7.56836C20.2705 7.44013 20.1749 7.30306 20.0114 7.26953C17.2274 6.70206 15.0339 5.48575 12.7115 3.94922ZM11.9996 8C13.1042 8 13.9996 8.89548 13.9996 10C13.9996 10.8455 13.4746 11.5668 12.733 11.8594V15C12.733 15.405 12.4046 15.7334 11.9996 15.7334C11.5948 15.7332 11.2662 15.4049 11.2662 15V11.8584C10.5252 11.5656 9.99963 10.8452 9.99963 10C9.9997 8.8956 10.8953 8.00019 11.9996 8Z"/>
</mask>
<path d="M10.4791 2.72559C11.4041 2.11381 12.5951 2.11394 13.5201 2.72559C15.786 4.22475 17.7939 5.32031 20.3043 5.83203C21.1179 5.99804 21.7624 6.72324 21.7321 7.61816C21.5218 13.7723 19.1269 19.6282 13.1178 21.5586C12.3915 21.7918 11.6077 21.7918 10.8815 21.5586C4.87261 19.6281 2.47744 13.7722 2.26721 7.61816C2.23691 6.72337 2.8815 5.99817 3.69495 5.83203C6.20546 5.32035 8.2132 4.22476 10.4791 2.72559ZM12.7115 3.94922C12.277 3.66189 11.7222 3.66175 11.2877 3.94922C8.96529 5.48576 6.77196 6.70211 3.98792 7.26953C3.82455 7.30317 3.72879 7.44022 3.73303 7.56836C3.93452 13.4665 6.19343 18.5119 11.3297 20.1621C11.7644 20.3018 12.2348 20.3017 12.6696 20.1621C17.8061 18.512 20.0647 13.4667 20.2662 7.56836C20.2705 7.44013 20.1749 7.30306 20.0114 7.26953C17.2274 6.70206 15.0339 5.48575 12.7115 3.94922ZM11.9996 8C13.1042 8 13.9996 8.89548 13.9996 10C13.9996 10.8455 13.4746 11.5668 12.733 11.8594V15C12.733 15.405 12.4046 15.7334 11.9996 15.7334C11.5948 15.7332 11.2662 15.4049 11.2662 15V11.8584C10.5252 11.5656 9.99963 10.8452 9.99963 10C9.9997 8.8956 10.8953 8.00019 11.9996 8Z" fill="#2C694A"/>
<path d="M10.4791 2.72559L9.87231 1.8081L9.87217 1.8082L10.4791 2.72559ZM13.5201 2.72559L14.1271 1.8082L14.1268 1.80802L13.5201 2.72559ZM20.3043 5.83203L20.5242 4.75424L20.524 4.7542L20.3043 5.83203ZM21.7321 7.61816L22.8314 7.65572L22.8314 7.65542L21.7321 7.61816ZM13.1178 21.5586L13.4541 22.6059L13.4542 22.6059L13.1178 21.5586ZM10.8815 21.5586L10.545 22.6059L10.5451 22.6059L10.8815 21.5586ZM2.26721 7.61816L1.16784 7.6554L1.16785 7.65572L2.26721 7.61816ZM3.69495 5.83203L3.47527 4.75419L3.47483 4.75428L3.69495 5.83203ZM12.7115 3.94922L13.3185 3.03183L13.3183 3.03166L12.7115 3.94922ZM11.2877 3.94922L11.8947 4.86661L11.8947 4.8666L11.2877 3.94922ZM3.98792 7.26953L3.76824 6.19169L3.76605 6.19214L3.98792 7.26953ZM3.73303 7.56836L2.63363 7.60479L2.63367 7.60591L3.73303 7.56836ZM11.3297 20.1621L10.9932 21.2094L10.9933 21.2094L11.3297 20.1621ZM12.6696 20.1621L13.0058 21.2094L13.006 21.2094L12.6696 20.1621ZM20.2662 7.56836L21.3656 7.60591L21.3656 7.6049L20.2662 7.56836ZM20.0114 7.26953L20.2322 6.19193L20.2311 6.1917L20.0114 7.26953ZM11.9996 8V6.9H11.9994L11.9996 8ZM13.9996 10H15.0996V9.99994L13.9996 10ZM12.733 11.8594L12.3293 10.8362L11.633 11.1109V11.8594H12.733ZM12.733 15L13.833 15V15H12.733ZM11.9996 15.7334L11.9991 16.8334H11.9996V15.7334ZM11.2662 15H10.1662V15L11.2662 15ZM11.2662 11.8584H12.3662V11.1103L11.6705 10.8354L11.2662 11.8584ZM9.99963 10L8.89963 9.99994V10H9.99963ZM10.4791 2.72559L11.0859 3.64307C11.6429 3.27471 12.3562 3.27469 12.9135 3.64315L13.5201 2.72559L14.1268 1.80802C12.834 0.953199 11.1653 0.952901 9.87231 1.8081L10.4791 2.72559ZM13.5201 2.72559L12.9132 3.64297C15.2216 5.17027 17.369 6.35632 20.0846 6.90987L20.3043 5.83203L20.524 4.7542C18.2188 4.2843 16.3505 3.27924 14.1271 1.8082L13.5201 2.72559ZM20.3043 5.83203L20.0844 6.90983C20.4141 6.97709 20.6434 7.26424 20.6327 7.58091L21.7321 7.61816L22.8314 7.65542C22.8813 6.18224 21.8218 5.01898 20.5242 4.75424L20.3043 5.83203ZM21.7321 7.61816L20.6327 7.58061C20.429 13.5449 18.1348 18.7916 12.7814 20.5113L13.1178 21.5586L13.4542 22.6059C20.119 20.4649 22.6147 13.9997 22.8314 7.65572L21.7321 7.61816ZM13.1178 21.5586L12.7815 20.5112C12.2739 20.6742 11.7253 20.6743 11.2178 20.5113L10.8815 21.5586L10.5451 22.6059C11.4902 22.9094 12.5092 22.9093 13.4541 22.6059L13.1178 21.5586ZM10.8815 21.5586L11.2179 20.5113C5.8647 18.7915 3.57031 13.5447 3.36657 7.58061L2.26721 7.61816L1.16785 7.65572C1.38457 13.9996 3.88053 20.4648 10.545 22.6059L10.8815 21.5586ZM2.26721 7.61816L3.36658 7.58093C3.35587 7.26453 3.5852 6.97715 3.91506 6.90978L3.69495 5.83203L3.47483 4.75428C2.17781 5.01918 1.11795 6.18222 1.16784 7.6554L2.26721 7.61816ZM3.69495 5.83203L3.91462 6.90987C6.63036 6.35637 8.77768 5.17026 11.0861 3.64297L10.4791 2.72559L9.87217 1.8082C7.64873 3.27926 5.78056 4.28434 3.47527 4.75419L3.69495 5.83203ZM12.7115 3.94922L13.3183 3.03166C12.516 2.50121 11.4835 2.50074 10.6808 3.03183L11.2877 3.94922L11.8947 4.8666C11.9609 4.82276 12.038 4.82256 12.1048 4.86677L12.7115 3.94922ZM11.2877 3.94922L10.6808 3.03183C8.40089 4.54021 6.3471 5.66608 3.76824 6.19169L3.98792 7.26953L4.20759 8.34737C7.19681 7.73813 9.5297 6.4313 11.8947 4.86661L11.2877 3.94922ZM3.98792 7.26953L3.76605 6.19214C3.09716 6.32988 2.61101 6.92188 2.63364 7.60479L3.73303 7.56836L4.83243 7.53193C4.84656 7.95857 4.55193 8.27647 4.20978 8.34692L3.98792 7.26953ZM3.73303 7.56836L2.63367 7.60591C2.84179 13.6982 5.20404 19.3494 10.9932 21.2094L11.3297 20.1621L11.6662 19.1148C7.18282 17.6744 5.02725 13.2349 4.83239 7.5308L3.73303 7.56836ZM11.3297 20.1621L10.9933 21.2094C11.6469 21.4194 12.3525 21.4192 13.0058 21.2094L12.6696 20.1621L12.3333 19.1148C12.1171 19.1842 11.882 19.1842 11.6661 19.1148L11.3297 20.1621ZM12.6696 20.1621L13.006 21.2094C18.7955 19.3495 21.1575 13.6983 21.3656 7.60591L20.2662 7.56836L19.1669 7.5308C18.972 13.2351 16.8167 17.6745 12.3331 19.1148L12.6696 20.1621ZM20.2662 7.56836L21.3656 7.6049C21.3883 6.92282 20.9032 6.32944 20.2322 6.19193L20.0114 7.26953L19.7905 8.34713C19.4467 8.27667 19.1527 7.95744 19.1668 7.53181L20.2662 7.56836ZM20.0114 7.26953L20.2311 6.1917C17.6523 5.66604 15.5983 4.54019 13.3185 3.03183L12.7115 3.94922L12.1046 4.86661C14.4696 6.43131 16.8026 7.73808 19.7916 8.34737L20.0114 7.26953ZM11.9996 8V9.1C12.4966 9.1 12.8996 9.50295 12.8996 10.0001L13.9996 10L15.0996 9.99994C15.0995 8.28802 13.7117 6.9 11.9996 6.9V8ZM13.9996 10H12.8996C12.8996 10.3773 12.6663 10.7032 12.3293 10.8362L12.733 11.8594L13.1368 12.8826C14.2829 12.4304 15.0996 11.3137 15.0996 10H13.9996ZM12.733 11.8594H11.633V15H12.733H13.833V11.8594H12.733ZM12.733 15L11.633 15C11.633 14.7975 11.7971 14.6334 11.9996 14.6334V15.7334V16.8334C13.0122 16.8334 13.833 16.0125 13.833 15L12.733 15ZM11.9996 15.7334L12.0002 14.6334C12.2019 14.6335 12.3662 14.7968 12.3662 15L11.2662 15L10.1662 15C10.1662 16.0129 10.9877 16.8329 11.9991 16.8334L11.9996 15.7334ZM11.2662 15H12.3662V11.8584H11.2662H10.1662V15H11.2662ZM11.2662 11.8584L11.6705 10.8354C11.3325 10.7018 11.0996 10.3759 11.0996 10H9.99963H8.89963C8.89963 11.3144 9.71784 12.4293 10.862 12.8814L11.2662 11.8584ZM9.99963 10L11.0996 10.0001C11.0997 9.50325 11.5027 9.10008 11.9998 9.1L11.9996 8L11.9994 6.9C10.2878 6.90029 8.89973 8.28795 8.89963 9.99994L9.99963 10Z" fill="#2C694A" mask="url(#path-1-inside-1_154_2038)"/>
</svg>
