<svg width="65" height="65" viewBox="0 0 65 65" fill="none" xmlns="http://www.w3.org/2000/svg">
<rect x="1" y="1" width="63" height="63" rx="31.5" fill="#3B8C63" fill-opacity="0.03"/>
<rect x="1" y="1" width="63" height="63" rx="31.5" stroke="#3B8C63" stroke-width="2"/>
<path d="M35.3 18.5C35.5476 18.5 35.785 18.5983 35.96 18.7734C36.135 18.9484 36.2334 19.1858 36.2334 19.4333C36.2334 19.6809 36.135 19.9183 35.96 20.0933C35.785 20.2683 35.5476 20.3667 35.3 20.3667H33.4334V22.4592C35.4251 22.612 37.3461 23.265 39.0184 24.3576C39.0569 24.3057 39.098 24.2559 39.1416 24.2083L41.0083 22.3416L41.1931 22.1923C41.4176 22.0464 41.6855 21.982 41.9518 22.01C42.2181 22.0379 42.4667 22.1565 42.6561 22.3458C42.8454 22.5352 42.964 22.7838 42.9919 23.0501C43.0199 23.3164 42.9555 23.5843 42.8096 23.8088L42.6603 23.9917L40.8366 25.8136C42.7921 27.7193 44.0358 30.2374 44.3605 32.9485C44.6853 35.6596 44.0716 38.4002 42.6215 40.7138C41.1715 43.0275 38.9726 44.7746 36.3911 45.6642C33.8096 46.5539 31.0012 46.5324 28.4336 45.6033C25.866 44.6741 23.6942 42.8935 22.2798 40.5579C20.8654 38.2223 20.2937 35.4727 20.66 32.7668C21.0263 30.061 22.3084 27.5623 24.2929 25.6868C26.2774 23.8113 28.8445 22.6722 31.5667 22.4592V20.3667H29.7C29.4525 20.3667 29.2151 20.2683 29.0401 20.0933C28.865 19.9183 28.7667 19.6809 28.7667 19.4333C28.7667 19.1858 28.865 18.9484 29.0401 18.7734C29.2151 18.5983 29.4525 18.5 29.7 18.5H35.3ZM32.5 24.2867C31.1761 24.2869 29.8651 24.5479 28.642 25.0548C27.4189 25.5617 26.3076 26.3045 25.3716 27.2409C23.4813 29.132 22.4195 31.6965 22.42 34.3704C22.4205 37.0443 23.4832 39.6084 25.3743 41.4988C27.2653 43.3892 29.8299 44.4509 32.5038 44.4504C35.1776 44.4499 37.7418 43.3872 39.6322 41.4962C41.5225 39.6051 42.5843 37.0405 42.5838 34.3667C42.5833 31.6928 41.5206 29.1286 39.6295 27.2383C37.7385 25.3479 35.1739 24.2862 32.5 24.2867ZM32.5 34.3667L38.3091 40.1739C37.3541 41.129 36.1783 41.8339 34.8858 42.2261C33.5933 42.6183 32.224 42.6857 30.8993 42.4223C29.5745 42.1589 28.3352 41.5729 27.291 40.7161C26.2468 39.8594 25.4301 38.7583 24.9131 37.5105C24.3961 36.2627 24.1948 34.9066 24.327 33.5624C24.4593 32.2182 24.921 30.9274 25.6713 29.8043C26.4216 28.6811 27.4373 27.7604 28.6284 27.1235C29.8195 26.4867 31.1493 26.1535 32.5 26.1533V34.3667Z" fill="#3B8C63"/>
</svg>
