<svg width="14" height="14" viewBox="0 0 14 14" fill="none" xmlns="http://www.w3.org/2000/svg">
<path d="M4.08325 4.08398H3.49992C3.1905 4.08398 2.89375 4.2069 2.67496 4.42569C2.45617 4.64449 2.33325 4.94123 2.33325 5.25065V10.5007C2.33325 10.8101 2.45617 11.1068 2.67496 11.3256C2.89375 11.5444 3.1905 11.6673 3.49992 11.6673H8.74992C9.05934 11.6673 9.35608 11.5444 9.57488 11.3256C9.79367 11.1068 9.91659 10.8101 9.91659 10.5007V9.91732" stroke="#3B8C63" stroke-width="1.16667" stroke-linecap="round" stroke-linejoin="round"/>
<path d="M9.33333 2.91673L11.0833 4.66673M11.8913 3.84131C12.121 3.61157 12.2501 3.29997 12.2501 2.97506C12.2501 2.65016 12.121 2.33856 11.8913 2.10881C11.6615 1.87907 11.3499 1.75 11.025 1.75C10.7001 1.75 10.3885 1.87907 10.1588 2.10881L5.25 7.00006V8.75006H7L11.8913 3.84131Z" stroke="#3B8C63" stroke-width="1.16667" stroke-linecap="round" stroke-linejoin="round"/>
</svg>
