<svg width="20" height="20" viewBox="0 0 20 20" fill="none" xmlns="http://www.w3.org/2000/svg">
<path d="M5.07092 9.17578C5.21933 10.0504 5.59457 10.8477 6.1344 11.5049C5.34267 11.9422 4.67452 12.5739 4.18811 13.333H2.18713C1.89964 13.3328 1.66663 13.1 1.66663 12.8125C1.66663 10.8801 3.17003 9.30015 5.07092 9.17578ZM14.9283 9.17578C16.8295 9.29983 18.3336 10.8799 18.3336 12.8125C18.3336 13.1001 18.0998 13.333 17.8121 13.333H15.8112C15.3247 12.574 14.6565 11.9422 13.8649 11.5049C14.4048 10.8477 14.7799 10.0505 14.9283 9.17578ZM5.83362 2.5C6.75873 2.50015 7.56449 3.00392 7.9967 3.75098C6.51093 4.40143 5.40237 5.75318 5.08948 7.3877C4.07193 7.07109 3.33362 6.12174 3.33362 5C3.33362 3.61929 4.45291 2.5 5.83362 2.5ZM14.1666 2.5C15.5473 2.50005 16.6666 3.61932 16.6666 5C16.6666 6.12222 15.927 7.0715 14.9088 7.3877C14.5958 5.75325 13.4883 4.40234 12.0026 3.75195C12.4347 3.00427 13.241 2.5 14.1666 2.5Z" fill="#818898"/>
<path d="M10 10.8335C11.3807 10.8335 12.5 9.71421 12.5 8.3335C12.5 6.95278 11.3807 5.8335 10 5.8335C8.61932 5.8335 7.50003 6.95278 7.50003 8.3335C7.50003 9.71421 8.61932 10.8335 10 10.8335Z" stroke="#818898" stroke-width="1.66667"/>
<path d="M13.7501 16.6668H6.25005C6.01992 16.6668 5.83337 16.4803 5.83337 16.2501C5.83342 14.6393 7.13927 13.3335 8.75011 13.3335H11.2501C12.8609 13.3335 14.1668 14.6394 14.1667 16.2502C14.1667 16.4803 13.9802 16.6668 13.7501 16.6668Z" stroke="#818898" stroke-width="1.66667"/>
</svg>
