<svg width="17" height="17" viewBox="0 0 17 17" fill="none" xmlns="http://www.w3.org/2000/svg">
<path d="M2.36417 3.48333L4.125 14.1192C4.20554 14.6061 4.45632 15.0486 4.83267 15.3678C5.20901 15.6871 5.68648 15.8624 6.18 15.8625H8.97M14.5517 3.48333L12.7917 14.1192C12.7111 14.6061 12.4603 15.0486 12.084 15.3678C11.7077 15.6871 11.2302 15.8624 10.7367 15.8625H7.94667M6.81 7.56917V11.7767M10.1067 7.56917V11.7767M0.75 3.48333H16.1667M10.7725 3.48333V2C10.7725 1.66848 10.6408 1.35054 10.4064 1.11612C10.172 0.881696 9.85402 0.75 9.5225 0.75H7.39417C7.06265 0.75 6.7447 0.881696 6.51028 1.11612C6.27586 1.35054 6.14417 1.66848 6.14417 2V3.48333H10.7725Z" stroke="white" stroke-width="1.5" stroke-linecap="round" stroke-linejoin="round"/>
</svg>
